<svg width="240" height="240" viewBox="0 0 240 240" fill="none" xmlns="http://www.w3.org/2000/svg">
<rect width="240" height="240" rx="16" fill="#030509"/>
<rect x="1" y="1" width="238" height="238" rx="15" stroke="#35F0A1" stroke-opacity="0.18" stroke-width="2"/>
<rect x="0.8" y="0.8" width="8.0" height="8.0" rx="2" fill="#35F0A1"/>
<rect x="10.4" y="0.8" width="8.0" height="8.0" rx="2" fill="#35F0A1"/>
<rect x="20.0" y="0.8" width="8.0" height="8.0" rx="2" fill="#35F0A1"/>
<rect x="29.6" y="0.8" width="8.0" height="8.0" rx="2" fill="#35F0A1"/>
<rect x="39.2" y="0.8" width="8.0" height="8.0" rx="2" fill="#35F0A1"/>
<rect x="48.8" y="0.8" width="8.0" height="8.0" rx="2" fill="#35F0A1"/>
<rect x="58.4" y="0.8" width="8.0" height="8.0" rx="2" fill="#35F0A1"/>
<rect x="77.6" y="0.8" width="8.0" height="8.0" rx="2" fill="#35F0A1"/>
<rect x="87.2" y="0.8" width="8.0" height="8.0" rx="2" fill="#35F0A1"/>
<rect x="96.8" y="0.8" width="8.0" height="8.0" rx="2" fill="#35F0A1"/>
<rect x="135.2" y="0.8" width="8.0" height="8.0" rx="2" fill="#35F0A1"/>
<rect x="154.4" y="0.8" width="8.0" height="8.0" rx="2" fill="#35F0A1"/>
<rect x="164.0" y="0.8" width="8.0" height="8.0" rx="2" fill="#35F0A1"/>
<rect x="173.6" y="0.8" width="8.0" height="8.0" rx="2" fill="#35F0A1"/>
<rect x="183.2" y="0.8" width="8.0" height="8.0" rx="2" fill="#35F0A1"/>
<rect x="192.8" y="0.8" width="8.0" height="8.0" rx="2" fill="#35F0A1"/>
<rect x="202.4" y="0.8" width="8.0" height="8.0" rx="2" fill="#35F0A1"/>
<rect x="212.0" y="0.8" width="8.0" height="8.0" rx="2" fill="#35F0A1"/>
<rect x="221.6" y="0.8" width="8.0" height="8.0" rx="2" fill="#35F0A1"/>
<rect x="231.2" y="0.8" width="8.0" height="8.0" rx="2" fill="#35F0A1"/>
<rect x="0.8" y="10.4" width="8.0" height="8.0" rx="2" fill="#35F0A1"/>
<rect x="58.4" y="10.4" width="8.0" height="8.0" rx="2" fill="#35F0A1"/>
<rect x="77.6" y="10.4" width="8.0" height="8.0" rx="2" fill="#35F0A1"/>
<rect x="87.2" y="10.4" width="8.0" height="8.0" rx="2" fill="#35F0A1"/>
<rect x="116.0" y="10.4" width="8.0" height="8.0" rx="2" fill="#35F0A1"/>
<rect x="144.8" y="10.4" width="8.0" height="8.0" rx="2" fill="#35F0A1"/>
<rect x="173.6" y="10.4" width="8.0" height="8.0" rx="2" fill="#35F0A1"/>
<rect x="231.2" y="10.4" width="8.0" height="8.0" rx="2" fill="#35F0A1"/>
<rect x="0.8" y="20.0" width="8.0" height="8.0" rx="2" fill="#35F0A1"/>
<rect x="20.0" y="20.0" width="8.0" height="8.0" rx="2" fill="#35F0A1"/>
<rect x="29.6" y="20.0" width="8.0" height="8.0" rx="2" fill="#35F0A1"/>
<rect x="39.2" y="20.0" width="8.0" height="8.0" rx="2" fill="#35F0A1"/>
<rect x="58.4" y="20.0" width="8.0" height="8.0" rx="2" fill="#35F0A1"/>
<rect x="68.0" y="20.0" width="8.0" height="8.0" rx="2" fill="#35F0A1"/>
<rect x="77.6" y="20.0" width="8.0" height="8.0" rx="2" fill="#35F0A1"/>
<rect x="96.8" y="20.0" width="8.0" height="8.0" rx="2" fill="#35F0A1"/>
<rect x="106.4" y="20.0" width="8.0" height="8.0" rx="2" fill="#35F0A1"/>
<rect x="116.0" y="20.0" width="8.0" height="8.0" rx="2" fill="#35F0A1"/>
<rect x="173.6" y="20.0" width="8.0" height="8.0" rx="2" fill="#35F0A1"/>
<rect x="192.8" y="20.0" width="8.0" height="8.0" rx="2" fill="#35F0A1"/>
<rect x="202.4" y="20.0" width="8.0" height="8.0" rx="2" fill="#35F0A1"/>
<rect x="212.0" y="20.0" width="8.0" height="8.0" rx="2" fill="#35F0A1"/>
<rect x="231.2" y="20.0" width="8.0" height="8.0" rx="2" fill="#35F0A1"/>
<rect x="0.8" y="29.6" width="8.0" height="8.0" rx="2" fill="#35F0A1"/>
<rect x="20.0" y="29.6" width="8.0" height="8.0" rx="2" fill="#35F0A1"/>
<rect x="29.6" y="29.6" width="8.0" height="8.0" rx="2" fill="#35F0A1"/>
<rect x="39.2" y="29.6" width="8.0" height="8.0" rx="2" fill="#35F0A1"/>
<rect x="58.4" y="29.6" width="8.0" height="8.0" rx="2" fill="#35F0A1"/>
<rect x="77.6" y="29.6" width="8.0" height="8.0" rx="2" fill="#35F0A1"/>
<rect x="144.8" y="29.6" width="8.0" height="8.0" rx="2" fill="#35F0A1"/>
<rect x="154.4" y="29.6" width="8.0" height="8.0" rx="2" fill="#35F0A1"/>
<rect x="164.0" y="29.6" width="8.0" height="8.0" rx="2" fill="#35F0A1"/>
<rect x="173.6" y="29.6" width="8.0" height="8.0" rx="2" fill="#35F0A1"/>
<rect x="192.8" y="29.6" width="8.0" height="8.0" rx="2" fill="#35F0A1"/>
<rect x="202.4" y="29.6" width="8.0" height="8.0" rx="2" fill="#35F0A1"/>
<rect x="212.0" y="29.6" width="8.0" height="8.0" rx="2" fill="#35F0A1"/>
<rect x="231.2" y="29.6" width="8.0" height="8.0" rx="2" fill="#35F0A1"/>
<rect x="0.8" y="39.2" width="8.0" height="8.0" rx="2" fill="#35F0A1"/>
<rect x="20.0" y="39.2" width="8.0" height="8.0" rx="2" fill="#35F0A1"/>
<rect x="29.6" y="39.2" width="8.0" height="8.0" rx="2" fill="#35F0A1"/>
<rect x="39.2" y="39.2" width="8.0" height="8.0" rx="2" fill="#35F0A1"/>
<rect x="58.4" y="39.2" width="8.0" height="8.0" rx="2" fill="#35F0A1"/>
<rect x="68.0" y="39.2" width="8.0" height="8.0" rx="2" fill="#35F0A1"/>
<rect x="77.6" y="39.2" width="8.0" height="8.0" rx="2" fill="#35F0A1"/>
<rect x="87.2" y="39.2" width="8.0" height="8.0" rx="2" fill="#35F0A1"/>
<rect x="96.8" y="39.2" width="8.0" height="8.0" rx="2" fill="#35F0A1"/>
<rect x="116.0" y="39.2" width="8.0" height="8.0" rx="2" fill="#35F0A1"/>
<rect x="125.6" y="39.2" width="8.0" height="8.0" rx="2" fill="#35F0A1"/>
<rect x="135.2" y="39.2" width="8.0" height="8.0" rx="2" fill="#35F0A1"/>
<rect x="144.8" y="39.2" width="8.0" height="8.0" rx="2" fill="#35F0A1"/>
<rect x="173.6" y="39.2" width="8.0" height="8.0" rx="2" fill="#35F0A1"/>
<rect x="192.8" y="39.2" width="8.0" height="8.0" rx="2" fill="#35F0A1"/>
<rect x="202.4" y="39.2" width="8.0" height="8.0" rx="2" fill="#35F0A1"/>
<rect x="212.0" y="39.2" width="8.0" height="8.0" rx="2" fill="#35F0A1"/>
<rect x="231.2" y="39.2" width="8.0" height="8.0" rx="2" fill="#35F0A1"/>
<rect x="0.8" y="48.8" width="8.0" height="8.0" rx="2" fill="#35F0A1"/>
<rect x="58.4" y="48.8" width="8.0" height="8.0" rx="2" fill="#35F0A1"/>
<rect x="77.6" y="48.8" width="8.0" height="8.0" rx="2" fill="#35F0A1"/>
<rect x="96.8" y="48.8" width="8.0" height="8.0" rx="2" fill="#35F0A1"/>
<rect x="106.4" y="48.8" width="8.0" height="8.0" rx="2" fill="#35F0A1"/>
<rect x="173.6" y="48.8" width="8.0" height="8.0" rx="2" fill="#35F0A1"/>
<rect x="231.2" y="48.8" width="8.0" height="8.0" rx="2" fill="#35F0A1"/>
<rect x="0.8" y="58.4" width="8.0" height="8.0" rx="2" fill="#35F0A1"/>
<rect x="10.4" y="58.4" width="8.0" height="8.0" rx="2" fill="#35F0A1"/>
<rect x="20.0" y="58.4" width="8.0" height="8.0" rx="2" fill="#35F0A1"/>
<rect x="29.6" y="58.4" width="8.0" height="8.0" rx="2" fill="#35F0A1"/>
<rect x="39.2" y="58.4" width="8.0" height="8.0" rx="2" fill="#35F0A1"/>
<rect x="48.8" y="58.4" width="8.0" height="8.0" rx="2" fill="#35F0A1"/>
<rect x="58.4" y="58.4" width="8.0" height="8.0" rx="2" fill="#35F0A1"/>
<rect x="68.0" y="58.4" width="8.0" height="8.0" rx="2" fill="#35F0A1"/>
<rect x="77.6" y="58.4" width="8.0" height="8.0" rx="2" fill="#35F0A1"/>
<rect x="87.2" y="58.4" width="8.0" height="8.0" rx="2" fill="#35F0A1"/>
<rect x="96.8" y="58.4" width="8.0" height="8.0" rx="2" fill="#35F0A1"/>
<rect x="106.4" y="58.4" width="8.0" height="8.0" rx="2" fill="#35F0A1"/>
<rect x="135.2" y="58.4" width="8.0" height="8.0" rx="2" fill="#35F0A1"/>
<rect x="154.4" y="58.4" width="8.0" height="8.0" rx="2" fill="#35F0A1"/>
<rect x="173.6" y="58.4" width="8.0" height="8.0" rx="2" fill="#35F0A1"/>
<rect x="183.2" y="58.4" width="8.0" height="8.0" rx="2" fill="#35F0A1"/>
<rect x="192.8" y="58.4" width="8.0" height="8.0" rx="2" fill="#35F0A1"/>
<rect x="202.4" y="58.4" width="8.0" height="8.0" rx="2" fill="#35F0A1"/>
<rect x="212.0" y="58.4" width="8.0" height="8.0" rx="2" fill="#35F0A1"/>
<rect x="221.6" y="58.4" width="8.0" height="8.0" rx="2" fill="#35F0A1"/>
<rect x="231.2" y="58.4" width="8.0" height="8.0" rx="2" fill="#35F0A1"/>
<rect x="10.4" y="68.0" width="8.0" height="8.0" rx="2" fill="#35F0A1"/>
<rect x="20.0" y="68.0" width="8.0" height="8.0" rx="2" fill="#35F0A1"/>
<rect x="39.2" y="68.0" width="8.0" height="8.0" rx="2" fill="#35F0A1"/>
<rect x="68.0" y="68.0" width="8.0" height="8.0" rx="2" fill="#35F0A1"/>
<rect x="77.6" y="68.0" width="8.0" height="8.0" rx="2" fill="#35F0A1"/>
<rect x="106.4" y="68.0" width="8.0" height="8.0" rx="2" fill="#35F0A1"/>
<rect x="116.0" y="68.0" width="8.0" height="8.0" rx="2" fill="#35F0A1"/>
<rect x="125.6" y="68.0" width="8.0" height="8.0" rx="2" fill="#35F0A1"/>
<rect x="164.0" y="68.0" width="8.0" height="8.0" rx="2" fill="#35F0A1"/>
<rect x="173.6" y="68.0" width="8.0" height="8.0" rx="2" fill="#35F0A1"/>
<rect x="221.6" y="68.0" width="8.0" height="8.0" rx="2" fill="#35F0A1"/>
<rect x="20.0" y="77.6" width="8.0" height="8.0" rx="2" fill="#35F0A1"/>
<rect x="39.2" y="77.6" width="8.0" height="8.0" rx="2" fill="#35F0A1"/>
<rect x="87.2" y="77.6" width="8.0" height="8.0" rx="2" fill="#35F0A1"/>
<rect x="106.4" y="77.6" width="8.0" height="8.0" rx="2" fill="#35F0A1"/>
<rect x="135.2" y="77.6" width="8.0" height="8.0" rx="2" fill="#35F0A1"/>
<rect x="164.0" y="77.6" width="8.0" height="8.0" rx="2" fill="#35F0A1"/>
<rect x="212.0" y="77.6" width="8.0" height="8.0" rx="2" fill="#35F0A1"/>
<rect x="221.6" y="77.6" width="8.0" height="8.0" rx="2" fill="#35F0A1"/>
<rect x="231.2" y="77.6" width="8.0" height="8.0" rx="2" fill="#35F0A1"/>
<rect x="29.6" y="87.2" width="8.0" height="8.0" rx="2" fill="#35F0A1"/>
<rect x="39.2" y="87.2" width="8.0" height="8.0" rx="2" fill="#35F0A1"/>
<rect x="68.0" y="87.2" width="8.0" height="8.0" rx="2" fill="#35F0A1"/>
<rect x="87.2" y="87.2" width="8.0" height="8.0" rx="2" fill="#35F0A1"/>
<rect x="116.0" y="87.2" width="8.0" height="8.0" rx="2" fill="#35F0A1"/>
<rect x="144.8" y="87.2" width="8.0" height="8.0" rx="2" fill="#35F0A1"/>
<rect x="173.6" y="87.2" width="8.0" height="8.0" rx="2" fill="#35F0A1"/>
<rect x="202.4" y="87.2" width="8.0" height="8.0" rx="2" fill="#35F0A1"/>
<rect x="212.0" y="87.2" width="8.0" height="8.0" rx="2" fill="#35F0A1"/>
<rect x="20.0" y="96.8" width="8.0" height="8.0" rx="2" fill="#35F0A1"/>
<rect x="29.6" y="96.8" width="8.0" height="8.0" rx="2" fill="#35F0A1"/>
<rect x="39.2" y="96.8" width="8.0" height="8.0" rx="2" fill="#35F0A1"/>
<rect x="58.4" y="96.8" width="8.0" height="8.0" rx="2" fill="#35F0A1"/>
<rect x="68.0" y="96.8" width="8.0" height="8.0" rx="2" fill="#35F0A1"/>
<rect x="77.6" y="96.8" width="8.0" height="8.0" rx="2" fill="#35F0A1"/>
<rect x="96.8" y="96.8" width="8.0" height="8.0" rx="2" fill="#35F0A1"/>
<rect x="125.6" y="96.8" width="8.0" height="8.0" rx="2" fill="#35F0A1"/>
<rect x="135.2" y="96.8" width="8.0" height="8.0" rx="2" fill="#35F0A1"/>
<rect x="154.4" y="96.8" width="8.0" height="8.0" rx="2" fill="#35F0A1"/>
<rect x="164.0" y="96.8" width="8.0" height="8.0" rx="2" fill="#35F0A1"/>
<rect x="221.6" y="96.8" width="8.0" height="8.0" rx="2" fill="#35F0A1"/>
<rect x="231.2" y="96.8" width="8.0" height="8.0" rx="2" fill="#35F0A1"/>
<rect x="58.4" y="106.4" width="8.0" height="8.0" rx="2" fill="#35F0A1"/>
<rect x="68.0" y="106.4" width="8.0" height="8.0" rx="2" fill="#35F0A1"/>
<rect x="77.6" y="106.4" width="8.0" height="8.0" rx="2" fill="#35F0A1"/>
<rect x="96.8" y="106.4" width="8.0" height="8.0" rx="2" fill="#35F0A1"/>
<rect x="106.4" y="106.4" width="8.0" height="8.0" rx="2" fill="#35F0A1"/>
<rect x="135.2" y="106.4" width="8.0" height="8.0" rx="2" fill="#35F0A1"/>
<rect x="144.8" y="106.4" width="8.0" height="8.0" rx="2" fill="#35F0A1"/>
<rect x="192.8" y="106.4" width="8.0" height="8.0" rx="2" fill="#35F0A1"/>
<rect x="10.4" y="116.0" width="8.0" height="8.0" rx="2" fill="#35F0A1"/>
<rect x="29.6" y="116.0" width="8.0" height="8.0" rx="2" fill="#35F0A1"/>
<rect x="39.2" y="116.0" width="8.0" height="8.0" rx="2" fill="#35F0A1"/>
<rect x="48.8" y="116.0" width="8.0" height="8.0" rx="2" fill="#35F0A1"/>
<rect x="58.4" y="116.0" width="8.0" height="8.0" rx="2" fill="#35F0A1"/>
<rect x="77.6" y="116.0" width="8.0" height="8.0" rx="2" fill="#35F0A1"/>
<rect x="154.4" y="116.0" width="8.0" height="8.0" rx="2" fill="#35F0A1"/>
<rect x="164.0" y="116.0" width="8.0" height="8.0" rx="2" fill="#35F0A1"/>
<rect x="212.0" y="116.0" width="8.0" height="8.0" rx="2" fill="#35F0A1"/>
<rect x="10.4" y="125.6" width="8.0" height="8.0" rx="2" fill="#35F0A1"/>
<rect x="29.6" y="125.6" width="8.0" height="8.0" rx="2" fill="#35F0A1"/>
<rect x="39.2" y="125.6" width="8.0" height="8.0" rx="2" fill="#35F0A1"/>
<rect x="68.0" y="125.6" width="8.0" height="8.0" rx="2" fill="#35F0A1"/>
<rect x="77.6" y="125.6" width="8.0" height="8.0" rx="2" fill="#35F0A1"/>
<rect x="96.8" y="125.6" width="8.0" height="8.0" rx="2" fill="#35F0A1"/>
<rect x="125.6" y="125.6" width="8.0" height="8.0" rx="2" fill="#35F0A1"/>
<rect x="164.0" y="125.6" width="8.0" height="8.0" rx="2" fill="#35F0A1"/>
<rect x="183.2" y="125.6" width="8.0" height="8.0" rx="2" fill="#35F0A1"/>
<rect x="192.8" y="125.6" width="8.0" height="8.0" rx="2" fill="#35F0A1"/>
<rect x="212.0" y="125.6" width="8.0" height="8.0" rx="2" fill="#35F0A1"/>
<rect x="221.6" y="125.6" width="8.0" height="8.0" rx="2" fill="#35F0A1"/>
<rect x="0.8" y="135.2" width="8.0" height="8.0" rx="2" fill="#35F0A1"/>
<rect x="39.2" y="135.2" width="8.0" height="8.0" rx="2" fill="#35F0A1"/>
<rect x="48.8" y="135.2" width="8.0" height="8.0" rx="2" fill="#35F0A1"/>
<rect x="58.4" y="135.2" width="8.0" height="8.0" rx="2" fill="#35F0A1"/>
<rect x="96.8" y="135.2" width="8.0" height="8.0" rx="2" fill="#35F0A1"/>
<rect x="106.4" y="135.2" width="8.0" height="8.0" rx="2" fill="#35F0A1"/>
<rect x="164.0" y="135.2" width="8.0" height="8.0" rx="2" fill="#35F0A1"/>
<rect x="183.2" y="135.2" width="8.0" height="8.0" rx="2" fill="#35F0A1"/>
<rect x="212.0" y="135.2" width="8.0" height="8.0" rx="2" fill="#35F0A1"/>
<rect x="221.6" y="135.2" width="8.0" height="8.0" rx="2" fill="#35F0A1"/>
<rect x="231.2" y="135.2" width="8.0" height="8.0" rx="2" fill="#35F0A1"/>
<rect x="10.4" y="144.8" width="8.0" height="8.0" rx="2" fill="#35F0A1"/>
<rect x="39.2" y="144.8" width="8.0" height="8.0" rx="2" fill="#35F0A1"/>
<rect x="58.4" y="144.8" width="8.0" height="8.0" rx="2" fill="#35F0A1"/>
<rect x="96.8" y="144.8" width="8.0" height="8.0" rx="2" fill="#35F0A1"/>
<rect x="116.0" y="144.8" width="8.0" height="8.0" rx="2" fill="#35F0A1"/>
<rect x="125.6" y="144.8" width="8.0" height="8.0" rx="2" fill="#35F0A1"/>
<rect x="154.4" y="144.8" width="8.0" height="8.0" rx="2" fill="#35F0A1"/>
<rect x="192.8" y="144.8" width="8.0" height="8.0" rx="2" fill="#35F0A1"/>
<rect x="202.4" y="144.8" width="8.0" height="8.0" rx="2" fill="#35F0A1"/>
<rect x="20.0" y="154.4" width="8.0" height="8.0" rx="2" fill="#35F0A1"/>
<rect x="29.6" y="154.4" width="8.0" height="8.0" rx="2" fill="#35F0A1"/>
<rect x="39.2" y="154.4" width="8.0" height="8.0" rx="2" fill="#35F0A1"/>
<rect x="87.2" y="154.4" width="8.0" height="8.0" rx="2" fill="#35F0A1"/>
<rect x="96.8" y="154.4" width="8.0" height="8.0" rx="2" fill="#35F0A1"/>
<rect x="106.4" y="154.4" width="8.0" height="8.0" rx="2" fill="#35F0A1"/>
<rect x="135.2" y="154.4" width="8.0" height="8.0" rx="2" fill="#35F0A1"/>
<rect x="154.4" y="154.4" width="8.0" height="8.0" rx="2" fill="#35F0A1"/>
<rect x="212.0" y="154.4" width="8.0" height="8.0" rx="2" fill="#35F0A1"/>
<rect x="231.2" y="154.4" width="8.0" height="8.0" rx="2" fill="#35F0A1"/>
<rect x="39.2" y="164.0" width="8.0" height="8.0" rx="2" fill="#35F0A1"/>
<rect x="58.4" y="164.0" width="8.0" height="8.0" rx="2" fill="#35F0A1"/>
<rect x="87.2" y="164.0" width="8.0" height="8.0" rx="2" fill="#35F0A1"/>
<rect x="116.0" y="164.0" width="8.0" height="8.0" rx="2" fill="#35F0A1"/>
<rect x="135.2" y="164.0" width="8.0" height="8.0" rx="2" fill="#35F0A1"/>
<rect x="144.8" y="164.0" width="8.0" height="8.0" rx="2" fill="#35F0A1"/>
<rect x="154.4" y="164.0" width="8.0" height="8.0" rx="2" fill="#35F0A1"/>
<rect x="164.0" y="164.0" width="8.0" height="8.0" rx="2" fill="#35F0A1"/>
<rect x="192.8" y="164.0" width="8.0" height="8.0" rx="2" fill="#35F0A1"/>
<rect x="212.0" y="164.0" width="8.0" height="8.0" rx="2" fill="#35F0A1"/>
<rect x="0.8" y="173.6" width="8.0" height="8.0" rx="2" fill="#35F0A1"/>
<rect x="10.4" y="173.6" width="8.0" height="8.0" rx="2" fill="#35F0A1"/>
<rect x="20.0" y="173.6" width="8.0" height="8.0" rx="2" fill="#35F0A1"/>
<rect x="29.6" y="173.6" width="8.0" height="8.0" rx="2" fill="#35F0A1"/>
<rect x="39.2" y="173.6" width="8.0" height="8.0" rx="2" fill="#35F0A1"/>
<rect x="48.8" y="173.6" width="8.0" height="8.0" rx="2" fill="#35F0A1"/>
<rect x="58.4" y="173.6" width="8.0" height="8.0" rx="2" fill="#35F0A1"/>
<rect x="77.6" y="173.6" width="8.0" height="8.0" rx="2" fill="#35F0A1"/>
<rect x="96.8" y="173.6" width="8.0" height="8.0" rx="2" fill="#35F0A1"/>
<rect x="116.0" y="173.6" width="8.0" height="8.0" rx="2" fill="#35F0A1"/>
<rect x="125.6" y="173.6" width="8.0" height="8.0" rx="2" fill="#35F0A1"/>
<rect x="154.4" y="173.6" width="8.0" height="8.0" rx="2" fill="#35F0A1"/>
<rect x="183.2" y="173.6" width="8.0" height="8.0" rx="2" fill="#35F0A1"/>
<rect x="202.4" y="173.6" width="8.0" height="8.0" rx="2" fill="#35F0A1"/>
<rect x="221.6" y="173.6" width="8.0" height="8.0" rx="2" fill="#35F0A1"/>
<rect x="0.8" y="183.2" width="8.0" height="8.0" rx="2" fill="#35F0A1"/>
<rect x="58.4" y="183.2" width="8.0" height="8.0" rx="2" fill="#35F0A1"/>
<rect x="106.4" y="183.2" width="8.0" height="8.0" rx="2" fill="#35F0A1"/>
<rect x="116.0" y="183.2" width="8.0" height="8.0" rx="2" fill="#35F0A1"/>
<rect x="135.2" y="183.2" width="8.0" height="8.0" rx="2" fill="#35F0A1"/>
<rect x="144.8" y="183.2" width="8.0" height="8.0" rx="2" fill="#35F0A1"/>
<rect x="173.6" y="183.2" width="8.0" height="8.0" rx="2" fill="#35F0A1"/>
<rect x="183.2" y="183.2" width="8.0" height="8.0" rx="2" fill="#35F0A1"/>
<rect x="192.8" y="183.2" width="8.0" height="8.0" rx="2" fill="#35F0A1"/>
<rect x="202.4" y="183.2" width="8.0" height="8.0" rx="2" fill="#35F0A1"/>
<rect x="212.0" y="183.2" width="8.0" height="8.0" rx="2" fill="#35F0A1"/>
<rect x="221.6" y="183.2" width="8.0" height="8.0" rx="2" fill="#35F0A1"/>
<rect x="0.8" y="192.8" width="8.0" height="8.0" rx="2" fill="#35F0A1"/>
<rect x="20.0" y="192.8" width="8.0" height="8.0" rx="2" fill="#35F0A1"/>
<rect x="29.6" y="192.8" width="8.0" height="8.0" rx="2" fill="#35F0A1"/>
<rect x="39.2" y="192.8" width="8.0" height="8.0" rx="2" fill="#35F0A1"/>
<rect x="58.4" y="192.8" width="8.0" height="8.0" rx="2" fill="#35F0A1"/>
<rect x="106.4" y="192.8" width="8.0" height="8.0" rx="2" fill="#35F0A1"/>
<rect x="125.6" y="192.8" width="8.0" height="8.0" rx="2" fill="#35F0A1"/>
<rect x="135.2" y="192.8" width="8.0" height="8.0" rx="2" fill="#35F0A1"/>
<rect x="192.8" y="192.8" width="8.0" height="8.0" rx="2" fill="#35F0A1"/>
<rect x="231.2" y="192.8" width="8.0" height="8.0" rx="2" fill="#35F0A1"/>
<rect x="0.8" y="202.4" width="8.0" height="8.0" rx="2" fill="#35F0A1"/>
<rect x="20.0" y="202.4" width="8.0" height="8.0" rx="2" fill="#35F0A1"/>
<rect x="29.6" y="202.4" width="8.0" height="8.0" rx="2" fill="#35F0A1"/>
<rect x="39.2" y="202.4" width="8.0" height="8.0" rx="2" fill="#35F0A1"/>
<rect x="58.4" y="202.4" width="8.0" height="8.0" rx="2" fill="#35F0A1"/>
<rect x="68.0" y="202.4" width="8.0" height="8.0" rx="2" fill="#35F0A1"/>
<rect x="96.8" y="202.4" width="8.0" height="8.0" rx="2" fill="#35F0A1"/>
<rect x="135.2" y="202.4" width="8.0" height="8.0" rx="2" fill="#35F0A1"/>
<rect x="144.8" y="202.4" width="8.0" height="8.0" rx="2" fill="#35F0A1"/>
<rect x="154.4" y="202.4" width="8.0" height="8.0" rx="2" fill="#35F0A1"/>
<rect x="164.0" y="202.4" width="8.0" height="8.0" rx="2" fill="#35F0A1"/>
<rect x="192.8" y="202.4" width="8.0" height="8.0" rx="2" fill="#35F0A1"/>
<rect x="202.4" y="202.4" width="8.0" height="8.0" rx="2" fill="#35F0A1"/>
<rect x="221.6" y="202.4" width="8.0" height="8.0" rx="2" fill="#35F0A1"/>
<rect x="0.8" y="212.0" width="8.0" height="8.0" rx="2" fill="#35F0A1"/>
<rect x="20.0" y="212.0" width="8.0" height="8.0" rx="2" fill="#35F0A1"/>
<rect x="29.6" y="212.0" width="8.0" height="8.0" rx="2" fill="#35F0A1"/>
<rect x="39.2" y="212.0" width="8.0" height="8.0" rx="2" fill="#35F0A1"/>
<rect x="58.4" y="212.0" width="8.0" height="8.0" rx="2" fill="#35F0A1"/>
<rect x="77.6" y="212.0" width="8.0" height="8.0" rx="2" fill="#35F0A1"/>
<rect x="96.8" y="212.0" width="8.0" height="8.0" rx="2" fill="#35F0A1"/>
<rect x="125.6" y="212.0" width="8.0" height="8.0" rx="2" fill="#35F0A1"/>
<rect x="144.8" y="212.0" width="8.0" height="8.0" rx="2" fill="#35F0A1"/>
<rect x="173.6" y="212.0" width="8.0" height="8.0" rx="2" fill="#35F0A1"/>
<rect x="183.2" y="212.0" width="8.0" height="8.0" rx="2" fill="#35F0A1"/>
<rect x="0.8" y="221.6" width="8.0" height="8.0" rx="2" fill="#35F0A1"/>
<rect x="58.4" y="221.6" width="8.0" height="8.0" rx="2" fill="#35F0A1"/>
<rect x="173.6" y="221.6" width="8.0" height="8.0" rx="2" fill="#35F0A1"/>
<rect x="183.2" y="221.6" width="8.0" height="8.0" rx="2" fill="#35F0A1"/>
<rect x="231.2" y="221.6" width="8.0" height="8.0" rx="2" fill="#35F0A1"/>
<rect x="0.8" y="231.2" width="8.0" height="8.0" rx="2" fill="#35F0A1"/>
<rect x="10.4" y="231.2" width="8.0" height="8.0" rx="2" fill="#35F0A1"/>
<rect x="20.0" y="231.2" width="8.0" height="8.0" rx="2" fill="#35F0A1"/>
<rect x="29.6" y="231.2" width="8.0" height="8.0" rx="2" fill="#35F0A1"/>
<rect x="39.2" y="231.2" width="8.0" height="8.0" rx="2" fill="#35F0A1"/>
<rect x="48.8" y="231.2" width="8.0" height="8.0" rx="2" fill="#35F0A1"/>
<rect x="58.4" y="231.2" width="8.0" height="8.0" rx="2" fill="#35F0A1"/>
<rect x="68.0" y="231.2" width="8.0" height="8.0" rx="2" fill="#35F0A1"/>
<rect x="77.6" y="231.2" width="8.0" height="8.0" rx="2" fill="#35F0A1"/>
<rect x="87.2" y="231.2" width="8.0" height="8.0" rx="2" fill="#35F0A1"/>
<rect x="96.8" y="231.2" width="8.0" height="8.0" rx="2" fill="#35F0A1"/>
<rect x="116.0" y="231.2" width="8.0" height="8.0" rx="2" fill="#35F0A1"/>
<rect x="125.6" y="231.2" width="8.0" height="8.0" rx="2" fill="#35F0A1"/>
<rect x="154.4" y="231.2" width="8.0" height="8.0" rx="2" fill="#35F0A1"/>
<rect x="164.0" y="231.2" width="8.0" height="8.0" rx="2" fill="#35F0A1"/>
<rect x="183.2" y="231.2" width="8.0" height="8.0" rx="2" fill="#35F0A1"/>
<rect x="192.8" y="231.2" width="8.0" height="8.0" rx="2" fill="#35F0A1"/>
</svg>
